<svg xmlns="http://www.w3.org/2000/svg" width="900" height="600" font-family="DejaVu Sans, Liberation Sans, Arial, sans-serif" fill="black"><rect width="100%" height="100%" fill="white" /><line x1="72.19999999999999" y1="549" x2="760" y2="549" stroke="black" stroke-width="1" /><line x1="72.19999999999999" y1="44" x2="72.19999999999999" y2="549" stroke="black" stroke-width="1" /><line x1="72.19999999999999" y1="44" x2="72.19999999999999" y2="549" stroke="#ccc" stroke-width="1" /><line x1="175.72421550884314" y1="44" x2="175.72421550884314" y2="549" stroke="#ccc" stroke-width="1" /><line x1="312.5757844911568" y1="44" x2="312.5757844911568" y2="549" stroke="#ccc" stroke-width="1" /><line x1="416.09999999999997" y1="44" x2="416.09999999999997" y2="549" stroke="#ccc" stroke-width="1" /><line x1="519.6242155088431" y1="44" x2="519.6242155088431" y2="549" stroke="#ccc" stroke-width="1" /><line x1="656.4757844911569" y1="44" x2="656.4757844911569" y2="549" stroke="#ccc" stroke-width="1" /><line x1="760" y1="44" x2="760" y2="549" stroke="#ccc" stroke-width="1" /><line x1="72.19999999999999" y1="448" x2="760" y2="448" stroke="#ccc" stroke-width="1" /><line x1="72.19999999999999" y1="347" x2="760" y2="347" stroke="#ccc" stroke-width="1" /><line x1="72.19999999999999" y1="246" x2="760" y2="246" stroke="#ccc" stroke-width="1" /><line x1="72.19999999999999" y1="145" x2="760" y2="145" stroke="#ccc" stroke-width="1" /><line x1="72.19999999999999" y1="44" x2="760" y2="44" stroke="#ccc" stroke-width="1" /><line x1="72.19999999999999" y1="549" x2="72.19999999999999" y2="554" stroke="black" stroke-width="1" /><text x="72.19999999999999" y="566" font-size="12" text-anchor="middle">10000</text><line x1="175.72421550884314" y1="549" x2="175.72421550884314" y2="554" stroke="black" stroke-width="1" /><text x="175.72421550884314" y="566" font-size="12" text-anchor="middle">20000</text><line x1="312.5757844911568" y1="549" x2="312.5757844911568" y2="554" stroke="black" stroke-width="1" /><text x="312.5757844911568" y="566" font-size="12" text-anchor="middle">50000</text><line x1="416.09999999999997" y1="549" x2="416.09999999999997" y2="554" stroke="black" stroke-width="1" /><text x="416.09999999999997" y="566" font-size="12" text-anchor="middle">100000</text><line x1="519.6242155088431" y1="549" x2="519.6242155088431" y2="554" stroke="black" stroke-width="1" /><text x="519.6242155088431" y="566" font-size="12" text-anchor="middle">200000</text><line x1="656.4757844911569" y1="549" x2="656.4757844911569" y2="554" stroke="black" stroke-width="1" /><text x="656.4757844911569" y="566" font-size="12" text-anchor="middle">500000</text><line x1="760" y1="549" x2="760" y2="554" stroke="black" stroke-width="1" /><text x="760" y="566" font-size="12" text-anchor="middle">1000000</text><line x1="67.19999999999999" y1="549" x2="72.19999999999999" y2="549" stroke="black" stroke-width="1" /><text x="64.19999999999999" y="553.2" font-size="12" text-anchor="end">0</text><line x1="67.19999999999999" y1="448" x2="72.19999999999999" y2="448" stroke="black" stroke-width="1" /><text x="64.19999999999999" y="452.2" font-size="12" text-anchor="end">0.2</text><line x1="67.19999999999999" y1="347" x2="72.19999999999999" y2="347" stroke="black" stroke-width="1" /><text x="64.19999999999999" y="351.2" font-size="12" text-anchor="end">0.4</text><line x1="67.19999999999999" y1="246" x2="72.19999999999999" y2="246" stroke="black" stroke-width="1" /><text x="64.19999999999999" y="250.2" font-size="12" text-anchor="end">0.6</text><line x1="67.19999999999999" y1="145" x2="72.19999999999999" y2="145" stroke="black" stroke-width="1" /><text x="64.19999999999999" y="149.2" font-size="12" text-anchor="end">0.8</text><line x1="67.19999999999999" y1="44" x2="72.19999999999999" y2="44" stroke="black" stroke-width="1" /><text x="64.19999999999999" y="48.2" font-size="12" text-anchor="end">1</text><text x="450" y="593" font-size="14" text-anchor="middle">median 2024 page views of the song, per quarter</text><text x="14" y="300" font-size="14" text-anchor="middle" transform="rotate(-90,14,300)">accuracy</text><text x="450" y="22" font-size="18" text-anchor="middle">Accuracy against song popularity</text><path d="M 147.0470290419471 301.44899999999996 L 242.82273950712755 220.043 L 324.27474401550626 184.0365 L 476.3308392651129 179.49149999999997 " stroke="#1f77b4" stroke-width="2" fill="none" /><path d="M 147.0470290419471 72.93650000000002 L 242.82273950712755 50.06 L 324.27474401550626 59.75600000000003 L 476.3308392651129 55.71600000000001 " stroke="#ff7f0e" stroke-width="2" fill="none" /><path d="M 147.0470290419471 401.03499999999997 L 242.82273950712755 388.0565 L 324.27474401550626 361.59450000000004 L 476.3308392651129 355.98900000000003 " stroke="#2ca02c" stroke-width="2" fill="none" /><path d="M 147.0470290419471 391.1875 L 242.82273950712755 381.99649999999997 L 324.27474401550626 341.849 L 476.3308392651129 365.7355 " stroke="#d62728" stroke-width="2" fill="none" /><rect x="765" y="34" width="126" height="92" fill="white" /><rect x="765" y="34" width="126" height="92" fill="none" stroke="black" stroke-width="1" /><text x="795" y="49" font-size="12" text-anchor="start">Jev</text><line x1="775" y1="46" x2="787" y2="46" stroke="#1f77b4" stroke-width="2" /><text x="795" y="67" font-size="12" text-anchor="start">GLM-5.3 Flash</text><line x1="775" y1="64" x2="787" y2="64" stroke="#ff7f0e" stroke-width="2" /><text x="795" y="85" font-size="12" text-anchor="start">Laya</text><line x1="775" y1="82" x2="787" y2="82" stroke="#2ca02c" stroke-width="2" /><text x="795" y="103" font-size="12" text-anchor="start">Embeddings</text><line x1="775" y1="100" x2="787" y2="100" stroke="#d62728" stroke-width="2" /></svg>