<svg xmlns="http://www.w3.org/2000/svg" width="1400" height="520" viewBox="0 0 1400 520"><rect width="100%" height="100%" fill="white"/><g transform="translate(0.0,0)"><svg xmlns="http://www.w3.org/2000/svg" width="700" height="520" font-family="DejaVu Sans, Liberation Sans, Arial, sans-serif" fill="black"><rect width="100%" height="100%" fill="white" /><line x1="72.19999999999999" y1="469" x2="560" y2="469" stroke="black" stroke-width="1" /><line x1="72.19999999999999" y1="44" x2="72.19999999999999" y2="469" stroke="black" stroke-width="1" /><line x1="153.5" y1="44" x2="153.5" y2="469" stroke="#ccc" stroke-width="1" /><line x1="234.79999999999998" y1="44" x2="234.79999999999998" y2="469" stroke="#ccc" stroke-width="1" /><line x1="316.09999999999997" y1="44" x2="316.09999999999997" y2="469" stroke="#ccc" stroke-width="1" /><line x1="397.4" y1="44" x2="397.4" y2="469" stroke="#ccc" stroke-width="1" /><line x1="478.7" y1="44" x2="478.7" y2="469" stroke="#ccc" stroke-width="1" /><line x1="560" y1="44" x2="560" y2="469" stroke="#ccc" stroke-width="1" /><line x1="72.19999999999999" y1="384" x2="560" y2="384" stroke="#ccc" stroke-width="1" /><line x1="72.19999999999999" y1="299" x2="560" y2="299" stroke="#ccc" stroke-width="1" /><line x1="72.19999999999999" y1="214" x2="560" y2="214" stroke="#ccc" stroke-width="1" /><line x1="72.19999999999999" y1="129" x2="560" y2="129" stroke="#ccc" stroke-width="1" /><line x1="72.19999999999999" y1="44" x2="560" y2="44" stroke="#ccc" stroke-width="1" /><line x1="72.19999999999999" y1="469" x2="72.19999999999999" y2="474" stroke="black" stroke-width="1" /><text x="72.19999999999999" y="486" font-size="12" text-anchor="middle">0</text><line x1="153.5" y1="469" x2="153.5" y2="474" stroke="black" stroke-width="1" /><text x="153.5" y="486" font-size="12" text-anchor="middle">0.01</text><line x1="234.79999999999998" y1="469" x2="234.79999999999998" y2="474" stroke="black" stroke-width="1" /><text x="234.79999999999998" y="486" font-size="12" text-anchor="middle">0.02</text><line x1="316.09999999999997" y1="469" x2="316.09999999999997" y2="474" stroke="black" stroke-width="1" /><text x="316.09999999999997" y="486" font-size="12" text-anchor="middle">0.03</text><line x1="397.4" y1="469" x2="397.4" y2="474" stroke="black" stroke-width="1" /><text x="397.4" y="486" font-size="12" text-anchor="middle">0.04</text><line x1="478.7" y1="469" x2="478.7" y2="474" stroke="black" stroke-width="1" /><text x="478.7" y="486" font-size="12" text-anchor="middle">0.05</text><line x1="560" y1="469" x2="560" y2="474" stroke="black" stroke-width="1" /><text x="560" y="486" font-size="12" text-anchor="middle">0.06</text><line x1="67.19999999999999" y1="469" x2="72.19999999999999" y2="469" stroke="black" stroke-width="1" /><text x="64.19999999999999" y="473.2" font-size="12" text-anchor="end">0</text><line x1="67.19999999999999" y1="384" x2="72.19999999999999" y2="384" stroke="black" stroke-width="1" /><text x="64.19999999999999" y="388.2" font-size="12" text-anchor="end">0.2</text><line x1="67.19999999999999" y1="299" x2="72.19999999999999" y2="299" stroke="black" stroke-width="1" /><text x="64.19999999999999" y="303.2" font-size="12" text-anchor="end">0.4</text><line x1="67.19999999999999" y1="214" x2="72.19999999999999" y2="214" stroke="black" stroke-width="1" /><text x="64.19999999999999" y="218.2" font-size="12" text-anchor="end">0.6</text><line x1="67.19999999999999" y1="129" x2="72.19999999999999" y2="129" stroke="black" stroke-width="1" /><text x="64.19999999999999" y="133.2" font-size="12" text-anchor="end">0.8</text><line x1="67.19999999999999" y1="44" x2="72.19999999999999" y2="44" stroke="black" stroke-width="1" /><text x="64.19999999999999" y="48.2" font-size="12" text-anchor="end">1</text><text x="350" y="513" font-size="14" text-anchor="middle">dollars per 1,000 right answers</text><text x="14" y="260" font-size="14" text-anchor="middle" transform="rotate(-90,14,260)">accuracy</text><text x="350" y="22" font-size="18" text-anchor="middle">Cost</text><circle cx="245.49094999999997" cy="170.565" r="7" fill="#1f77b4" /><circle cx="539.0896399999999" cy="58.067499999999995" r="7" fill="#ff7f0e" /><circle cx="72.19999999999999" cy="316.935" r="7" fill="#2ca02c" /><circle cx="72.19999999999999" cy="299.97749999999996" r="7" fill="#d62728" /><rect x="565" y="34" width="126" height="92" fill="white" /><rect x="565" y="34" width="126" height="92" fill="none" stroke="black" stroke-width="1" /><text x="595" y="49" font-size="12" text-anchor="start">Jev</text><circle cx="581" cy="45" r="5" fill="#1f77b4" /><text x="595" y="67" font-size="12" text-anchor="start">GLM-5.3 Flash</text><circle cx="581" cy="63" r="5" fill="#ff7f0e" /><text x="595" y="85" font-size="12" text-anchor="start">Laya</text><circle cx="581" cy="81" r="5" fill="#2ca02c" /><text x="595" y="103" font-size="12" text-anchor="start">Embeddings</text><circle cx="581" cy="99" r="5" fill="#d62728" /></svg></g><g transform="translate(700.0,0)"><svg xmlns="http://www.w3.org/2000/svg" width="700" height="520" font-family="DejaVu Sans, Liberation Sans, Arial, sans-serif" fill="black"><rect width="100%" height="100%" fill="white" /><line x1="72.19999999999999" y1="469" x2="560" y2="469" stroke="black" stroke-width="1" /><line x1="72.19999999999999" y1="44" x2="72.19999999999999" y2="469" stroke="black" stroke-width="1" /><line x1="72.19999999999999" y1="44" x2="72.19999999999999" y2="469" stroke="#ccc" stroke-width="1" /><line x1="121.14747729496334" y1="44" x2="121.14747729496334" y2="469" stroke="#ccc" stroke-width="1" /><line x1="185.85252270503662" y1="44" x2="185.85252270503662" y2="469" stroke="#ccc" stroke-width="1" /><line x1="234.79999999999995" y1="44" x2="234.79999999999995" y2="469" stroke="#ccc" stroke-width="1" /><line x1="283.74747729496335" y1="44" x2="283.74747729496335" y2="469" stroke="#ccc" stroke-width="1" /><line x1="348.4525227050366" y1="44" x2="348.4525227050366" y2="469" stroke="#ccc" stroke-width="1" /><line x1="397.3999999999999" y1="44" x2="397.3999999999999" y2="469" stroke="#ccc" stroke-width="1" /><line x1="446.3474772949633" y1="44" x2="446.3474772949633" y2="469" stroke="#ccc" stroke-width="1" /><line x1="511.0525227050366" y1="44" x2="511.0525227050366" y2="469" stroke="#ccc" stroke-width="1" /><line x1="560" y1="44" x2="560" y2="469" stroke="#ccc" stroke-width="1" /><line x1="72.19999999999999" y1="384" x2="560" y2="384" stroke="#ccc" stroke-width="1" /><line x1="72.19999999999999" y1="299" x2="560" y2="299" stroke="#ccc" stroke-width="1" /><line x1="72.19999999999999" y1="214" x2="560" y2="214" stroke="#ccc" stroke-width="1" /><line x1="72.19999999999999" y1="129" x2="560" y2="129" stroke="#ccc" stroke-width="1" /><line x1="72.19999999999999" y1="44" x2="560" y2="44" stroke="#ccc" stroke-width="1" /><line x1="72.19999999999999" y1="469" x2="72.19999999999999" y2="474" stroke="black" stroke-width="1" /><text x="72.19999999999999" y="486" font-size="12" text-anchor="middle">1e-2</text><line x1="121.14747729496334" y1="469" x2="121.14747729496334" y2="474" stroke="black" stroke-width="1" /><text x="121.14747729496334" y="486" font-size="12" text-anchor="middle">0.020</text><line x1="185.85252270503662" y1="469" x2="185.85252270503662" y2="474" stroke="black" stroke-width="1" /><text x="185.85252270503662" y="486" font-size="12" text-anchor="middle">0.050</text><line x1="234.79999999999995" y1="469" x2="234.79999999999995" y2="474" stroke="black" stroke-width="1" /><text x="234.79999999999995" y="486" font-size="12" text-anchor="middle">1e-1</text><line x1="283.74747729496335" y1="469" x2="283.74747729496335" y2="474" stroke="black" stroke-width="1" /><text x="283.74747729496335" y="486" font-size="12" text-anchor="middle">0.20</text><line x1="348.4525227050366" y1="469" x2="348.4525227050366" y2="474" stroke="black" stroke-width="1" /><text x="348.4525227050366" y="486" font-size="12" text-anchor="middle">0.50</text><line x1="397.3999999999999" y1="469" x2="397.3999999999999" y2="474" stroke="black" stroke-width="1" /><text x="397.3999999999999" y="486" font-size="12" text-anchor="middle">1</text><line x1="446.3474772949633" y1="469" x2="446.3474772949633" y2="474" stroke="black" stroke-width="1" /><text x="446.3474772949633" y="486" font-size="12" text-anchor="middle">2</text><line x1="511.0525227050366" y1="469" x2="511.0525227050366" y2="474" stroke="black" stroke-width="1" /><text x="511.0525227050366" y="486" font-size="12" text-anchor="middle">5</text><line x1="560" y1="469" x2="560" y2="474" stroke="black" stroke-width="1" /><text x="560" y="486" font-size="12" text-anchor="middle">10</text><line x1="67.19999999999999" y1="469" x2="72.19999999999999" y2="469" stroke="black" stroke-width="1" /><text x="64.19999999999999" y="473.2" font-size="12" text-anchor="end">0</text><line x1="67.19999999999999" y1="384" x2="72.19999999999999" y2="384" stroke="black" stroke-width="1" /><text x="64.19999999999999" y="388.2" font-size="12" text-anchor="end">0.2</text><line x1="67.19999999999999" y1="299" x2="72.19999999999999" y2="299" stroke="black" stroke-width="1" /><text x="64.19999999999999" y="303.2" font-size="12" text-anchor="end">0.4</text><line x1="67.19999999999999" y1="214" x2="72.19999999999999" y2="214" stroke="black" stroke-width="1" /><text x="64.19999999999999" y="218.2" font-size="12" text-anchor="end">0.6</text><line x1="67.19999999999999" y1="129" x2="72.19999999999999" y2="129" stroke="black" stroke-width="1" /><text x="64.19999999999999" y="133.2" font-size="12" text-anchor="end">0.8</text><line x1="67.19999999999999" y1="44" x2="72.19999999999999" y2="44" stroke="black" stroke-width="1" /><text x="64.19999999999999" y="48.2" font-size="12" text-anchor="end">1</text><text x="350" y="513" font-size="14" text-anchor="middle">median seconds per answer (log)</text><text x="14" y="260" font-size="14" text-anchor="middle" transform="rotate(-90,14,260)">accuracy</text><text x="350" y="22" font-size="18" text-anchor="middle">Time</text><circle cx="288.8544935822774" cy="170.565" r="7" fill="#1f77b4" /><circle cx="546.304050128947" cy="58.067499999999995" r="7" fill="#ff7f0e" /><circle cx="211.60226391972424" cy="316.935" r="7" fill="#2ca02c" /><rect x="565" y="34" width="126" height="74" fill="white" /><rect x="565" y="34" width="126" height="74" fill="none" stroke="black" stroke-width="1" /><text x="595" y="49" font-size="12" text-anchor="start">Jev</text><circle cx="581" cy="45" r="5" fill="#1f77b4" /><text x="595" y="67" font-size="12" text-anchor="start">GLM-5.3 Flash</text><circle cx="581" cy="63" r="5" fill="#ff7f0e" /><text x="595" y="85" font-size="12" text-anchor="start">Laya</text><circle cx="581" cy="81" r="5" fill="#2ca02c" /></svg></g></svg>
